<svg xmlns="http://www.w3.org/2000/svg" width="122.439" height="120.12" viewBox="0 0 122.439 120.12"><title>mergersacquisitions-icon</title><g id="Layer_2" data-name="Layer 2"><g id="Content_blocks" data-name="Content blocks"><path d="M43.473,118.9a30.086,30.086,0,0,1-8.754,1.223,26.335,26.335,0,0,1-9.694-1.882,29.1,29.1,0,0,1-8.659-5.271,26.788,26.788,0,0,1-6.306-8.282A24.052,24.052,0,0,1,7.613,93.766a28.074,28.074,0,0,1,1.318-8.377,32.068,32.068,0,0,1,3.765-8,39.513,39.513,0,0,1,5.648-6.87,32.378,32.378,0,0,1,6.965-5.177,34.223,34.223,0,0,0-2.259,12.8A38.163,38.163,0,0,0,30.86,101.3a39.517,39.517,0,0,0,9.412,8.847,35.277,35.277,0,0,0,12.706,5.271Q47.517,117.672,43.473,118.9Zm75.484-4.33a38.157,38.157,0,0,1-4.8,2.636,35.218,35.218,0,0,1-5.835,2.071,26.419,26.419,0,0,1-6.777.847,44.648,44.648,0,0,1-11.765-1.788,24.165,24.165,0,0,1-11.765-7.812q-4.142-4.7-9.224-10.917T58.344,86.613Q52.979,79.837,47.8,72.872T38.108,59.789Q33.59,53.674,30.2,48.871t-4.894-7.436a27.478,27.478,0,0,1-3.482-8.658,40.45,40.45,0,0,1-1.035-8.659A21.411,21.411,0,0,1,26.343,9.529q5.551-6.3,15.906-8.941a8.486,8.486,0,0,0-3.011,4.236,18.035,18.035,0,0,0-.941,5.929A35.867,35.867,0,0,0,40.461,22.33a60.589,60.589,0,0,0,6.87,13.459q2.444,3.768,6.212,8.941t8.094,10.729q4.328,5.555,8.754,11.295t8.471,10.635q4.046,4.9,7.153,8.754T90.627,91.7q3.388,3.953,6.965,7.718a91.3,91.3,0,0,0,7.248,6.871,42.269,42.269,0,0,0,7.153,4.988,14.045,14.045,0,0,0,6.683,1.882,8.338,8.338,0,0,0,3.765-.941Q121.12,113.158,118.957,114.566ZM78.109,26.753A67.326,67.326,0,0,1,65.4,36.165q1.5-5.082,3.106-9.224a26.572,26.572,0,0,0,1.6-9.6,23.027,23.027,0,0,0-.753-5.741,27.222,27.222,0,0,0-1.977-5.365,14.757,14.757,0,0,0-3.011-4.141A7.641,7.641,0,0,0,60.32.023,30.05,30.05,0,0,1,70.2,1.152a19.48,19.48,0,0,1,7.059,3.765A16.534,16.534,0,0,1,81.5,10.376a13.72,13.72,0,0,1,1.412,5.836A14.447,14.447,0,0,1,78.109,26.753Z" transform="translate(0 0)" fill="#e41e26"/><path d="M95.144,75.883a48.221,48.221,0,0,0,.565-7.529,29.414,29.414,0,0,0-.847-7.153,15.988,15.988,0,0,0-3.012-6.117A17.013,17.013,0,0,0,86.2,50.565a24.725,24.725,0,0,0-8.565-2.353h35.389C110.163,52.52,99.007,69.595,95.144,75.883Z" transform="translate(0 0)" fill="#e41e26"/><path d="M6.533,46.677,4.541,57.438H2.7l3.211-16.45,5.535,13.085,5.535-13.085,3.21,16.45H18.357L16.342,46.677,11.449,58.058Z" transform="translate(0 0)" fill="#fff"/><path d="M24.851,41.607H33.2v1.728H26.732v4.538H33.2v1.75H26.732v6.066H33.2v1.749H24.851Z" transform="translate(0 0)" fill="#fff"/><path d="M38.6,41.607h3.72c1.506,0,2.656.045,3.631.8a4.371,4.371,0,0,1,1.483,3.521c0,2.59-1.483,3.963-4.272,3.963h-.333l6.045,7.55H46.486l-5.778-7.55h-.222v7.55H38.6Zm3.276,6.887c2.48,0,3.7-.354,3.7-2.547,0-2.3-1.2-2.745-3.7-2.745H40.486v5.292Z" transform="translate(0 0)" fill="#fff"/><path d="M56.012,56.929a7.917,7.917,0,0,1-4.074-7.24,8.375,8.375,0,0,1,2.547-6.377,7.856,7.856,0,0,1,5.623-2.059,7.5,7.5,0,0,1,6.73,3.32l-1.572,1.263a5.57,5.57,0,0,0-5.092-2.878c-3.676,0-6.2,2.723-6.2,6.73a6.1,6.1,0,0,0,6.2,6.465,5.471,5.471,0,0,0,5.713-5.2H61.369V49.268H67.9V49.8c0,5.048-3.077,8.06-7.9,8.06A8.349,8.349,0,0,1,56.012,56.929Z" transform="translate(0 0)" fill="#fff"/><path d="M72.911,41.607h8.347v1.728H74.793v4.538h6.465v1.75H74.793v6.066h6.465v1.749H72.911Z" transform="translate(0 0)" fill="#fff"/><path d="M86.665,41.607h3.72c1.506,0,2.656.045,3.631.8A4.371,4.371,0,0,1,95.5,45.925c0,2.59-1.483,3.963-4.272,3.963h-.333l6.045,7.55H94.547l-5.778-7.55h-.222v7.55H86.665Zm3.276,6.887c2.48,0,3.7-.354,3.7-2.547,0-2.3-1.2-2.745-3.7-2.745H88.547v5.292Z" transform="translate(0 0)" fill="#fff"/><path d="M99.688,54.162l1.7-.842c.465,1.926,1.551,2.922,3.145,2.922A2.91,2.91,0,0,0,107.7,53.3c0-1.418-.819-2.458-2.458-3.166l-1.926-.82c-2.1-.885-3.122-2.258-3.122-4.184,0-2.215,1.815-3.9,4.45-3.9a4.251,4.251,0,0,1,4.1,2.392l-1.551,1a3.038,3.038,0,0,0-2.679-1.815,2.263,2.263,0,0,0-2.413,2.3c0,1.129.687,1.926,2.125,2.546l2.259,1a4.511,4.511,0,0,1,3.122,4.34c0,2.9-2.016,4.849-5.07,4.849A4.651,4.651,0,0,1,99.688,54.162Z" transform="translate(0 0)" fill="#fff"/><path d="M4.643,70.088,9.3,80.732H7.98L6.648,77.6h-4L1.318,80.732H0Zm1.633,6.461L4.643,72.781,3.009,76.548Z" transform="translate(0 0)" fill="#fff"/><path d="M13.355,80.059a5.445,5.445,0,0,1-.7-8.311,5.287,5.287,0,0,1,3.811-1.5,5.768,5.768,0,0,1,3.367,1.1v1.591a4.39,4.39,0,0,0-3.41-1.562A4.13,4.13,0,0,0,13.5,72.623a4.173,4.173,0,0,0-1.175,3.023,4.1,4.1,0,0,0,.7,2.422,4.169,4.169,0,0,0,3.453,1.819,4.276,4.276,0,0,0,3.353-1.619v1.619a5.879,5.879,0,0,1-3.453,1.118A5.285,5.285,0,0,1,13.355,80.059Z" transform="translate(0 0)" fill="#fff"/><path d="M31.082,80.259a5.68,5.68,0,0,1-2.908.7,5.138,5.138,0,0,1-3.109-1,5.223,5.223,0,0,1-2.192-4.342,5.306,5.306,0,0,1,1.6-3.8,5.662,5.662,0,0,1,7.651-.143,5.238,5.238,0,0,1,1.705,3.955A4.916,4.916,0,0,1,32,79.615l1.948,2.106h-1.5Zm-.859-.916-2.092-2.265h1.5l1.52,1.634a3.812,3.812,0,0,0,1.36-3.037,4.32,4.32,0,0,0-.573-2.236,4.1,4.1,0,0,0-3.6-2.006,4.16,4.16,0,0,0-4.184,4.184A4.062,4.062,0,0,0,25.91,79.07a4.265,4.265,0,0,0,4.313.273Z" transform="translate(0 0)" fill="#fff"/><path d="M37.2,76.864V70.488h1.218v6.376c0,2.049.845,3.009,2.751,3.009s2.736-.96,2.751-3.009V70.488h1.218v6.376c0,2.766-1.3,4.142-3.969,4.142S37.2,79.63,37.2,76.864Z" transform="translate(0 0)" fill="#fff"/><path d="M49.012,70.488h1.218V80.732H49.012Z" transform="translate(0 0)" fill="#fff"/><path d="M53.469,78.612l1.1-.544c.3,1.246,1,1.891,2.034,1.891a1.884,1.884,0,0,0,2.049-1.905A2.2,2.2,0,0,0,57.064,76l-1.246-.53A2.82,2.82,0,0,1,53.8,72.766a2.626,2.626,0,0,1,2.88-2.522,2.75,2.75,0,0,1,2.65,1.549l-1,.645a1.968,1.968,0,0,0-1.734-1.176,1.465,1.465,0,0,0-1.562,1.49c0,.73.444,1.246,1.376,1.648l1.461.645a2.918,2.918,0,0,1,2.021,2.809,3.273,3.273,0,0,1-6.419.759Z" transform="translate(0 0)" fill="#fff"/><path d="M62.955,70.488h1.218V80.732H62.955Z" transform="translate(0 0)" fill="#fff"/><path d="M69.877,71.648H66.982v-1.16h7.006v1.16H71.094v9.084H69.877Z" transform="translate(0 0)" fill="#fff"/><path d="M76.8,70.488h1.218V80.732H76.8Z" transform="translate(0 0)" fill="#fff"/><path d="M83.061,79.429a5.313,5.313,0,0,1,0-7.609,5.594,5.594,0,0,1,7.752,0,5.347,5.347,0,0,1,0,7.609,5.554,5.554,0,0,1-7.752,0Zm6.835-.817a4.135,4.135,0,0,0,1.231-2.979,4.2,4.2,0,0,0-1.231-3.01,4.185,4.185,0,0,0-5.932,0,4.225,4.225,0,0,0-1.232,3.01,4.157,4.157,0,0,0,1.232,2.979,4.15,4.15,0,0,0,5.932,0Z" transform="translate(0 0)" fill="#fff"/><path d="M97.048,73.039v7.693H95.83V70.088l7.436,8.181v-7.78h1.219V81.134Z" transform="translate(0 0)" fill="#fff"/><path d="M107.7,78.612l1.1-.544c.3,1.246,1,1.891,2.035,1.891a1.883,1.883,0,0,0,2.049-1.905A2.2,2.2,0,0,0,111.292,76l-1.246-.53a2.82,2.82,0,0,1-2.021-2.708,2.626,2.626,0,0,1,2.88-2.522,2.752,2.752,0,0,1,2.651,1.549l-1,.645a1.965,1.965,0,0,0-1.733-1.176,1.465,1.465,0,0,0-1.562,1.49c0,.73.444,1.246,1.375,1.648l1.462.645a2.918,2.918,0,0,1,2.021,2.809,3.273,3.273,0,0,1-6.419.759Z" transform="translate(0 0)" fill="#fff"/></g></g></svg>